# xmcd
#
# Track frame offsets:
#	150
#	11745
#	25467
#	36362
#	46327
#	57505
#	68735
#	80392
#	90630
#	102292
#	113642
#	128245
#	140467
#	154272
#	166637
#
# Disc length: 2383
#
# Revision: 3
# Processed by: cddbd v1.5.1PL0 Copyright (c) Steve Scherf et al.
# Submitted via: audiograbber 1.83.01
# Normalized: r2:DSETVAR1
#
DISCID=c2094d0f
DTITLE=Various Artist - Soul Classics 1963 - (Volume 11)
DYEAR=2000
DGENRE=Soul
TTITLE0=Rufus Thomas - Walking The Dog
TTITLE1=The Drifters - On Broadway
TTITLE2=Otis Redding - Pain In My Heart
TTITLE3=Floyd Newman - Frog Stomp
TTITLE4=Ben E. King - I (Who Have Nothing)
TTITLE5=Chris Kenner - Land Of 1000 Dances
TTITLE6=Solomon Burke - If You Need Me
TTITLE7=Carla Thomas - What A Fool I've Been
TTITLE8=Rufus Thomas - The Dog
TTITLE9=Doris Troy - Just One Look
TTITLE10=T. Booker and The MG's - Home Grown
TTITLE11=Barbara Lewis - Hello Stranger
TTITLE12=Solomon Burke - You're Good For Me
TTITLE13=Betty Lavette - My Man Is A Lovin' Man
TTITLE14=The Drifters - I'll Take You Home
EXTD=
EXTT0=
EXTT1=
EXTT2=
EXTT3=
EXTT4=
EXTT5=
EXTT6=
EXTT7=
EXTT8=
EXTT9=
EXTT10=
EXTT11=
EXTT12=
EXTT13=
EXTT14=
PLAYORDER=
